<mxfile host="app.diagrams.net" modified="2022-05-24T18:54:34.041Z" agent="5.0 (Windows NT 10.0; Win64; x64) AppleWebKit/537.36 (KHTML, like Gecko) Chrome/101.0.4951.67 Safari/537.36" etag="svC-n47rykQHa-e_WOrR" version="18.1.2" type="github">
  <diagram id="R2lEEEUBdFMjLlhIrx00" name="Page-1">
    <mxGraphModel dx="2512" dy="762" grid="1" gridSize="10" guides="1" tooltips="1" connect="1" arrows="1" fold="1" page="1" pageScale="1" pageWidth="850" pageHeight="1100" math="0" shadow="0" extFonts="Permanent Marker^https://fonts.googleapis.com/css?family=Permanent+Marker">
      <root>
        <mxCell id="0" />
        <mxCell id="1" parent="0" />
        <mxCell id="bInewbM1cch98FMkwYiV-30" value="Jogador" style="shape=table;startSize=30;container=1;collapsible=1;childLayout=tableLayout;fixedRows=1;rowLines=0;fontStyle=1;align=center;resizeLast=1;" parent="1" vertex="1">
          <mxGeometry x="-190" y="70" width="180" height="170" as="geometry" />
        </mxCell>
        <mxCell id="bInewbM1cch98FMkwYiV-31" value="" style="shape=tableRow;horizontal=0;startSize=0;swimlaneHead=0;swimlaneBody=0;fillColor=none;collapsible=0;dropTarget=0;points=[[0,0.5],[1,0.5]];portConstraint=eastwest;top=0;left=0;right=0;bottom=1;" parent="bInewbM1cch98FMkwYiV-30" vertex="1">
          <mxGeometry y="30" width="180" height="70" as="geometry" />
        </mxCell>
        <mxCell id="bInewbM1cch98FMkwYiV-32" value="PK&#xa;" style="shape=partialRectangle;connectable=0;fillColor=none;top=0;left=0;bottom=0;right=0;fontStyle=1;overflow=hidden;startSize=30;" parent="bInewbM1cch98FMkwYiV-31" vertex="1">
          <mxGeometry width="30" height="70" as="geometry">
            <mxRectangle width="30" height="70" as="alternateBounds" />
          </mxGeometry>
        </mxCell>
        <mxCell id="bInewbM1cch98FMkwYiV-33" value="ID_Jogador&#xa;" style="shape=partialRectangle;connectable=0;fillColor=none;top=0;left=0;bottom=0;right=0;align=left;spacingLeft=6;fontStyle=5;overflow=hidden;startSize=30;" parent="bInewbM1cch98FMkwYiV-31" vertex="1">
          <mxGeometry x="30" width="150" height="70" as="geometry">
            <mxRectangle width="150" height="70" as="alternateBounds" />
          </mxGeometry>
        </mxCell>
        <mxCell id="bInewbM1cch98FMkwYiV-34" value="" style="shape=tableRow;horizontal=0;startSize=0;swimlaneHead=0;swimlaneBody=0;fillColor=none;collapsible=0;dropTarget=0;points=[[0,0.5],[1,0.5]];portConstraint=eastwest;top=0;left=0;right=0;bottom=0;" parent="bInewbM1cch98FMkwYiV-30" vertex="1">
          <mxGeometry y="100" width="180" height="30" as="geometry" />
        </mxCell>
        <mxCell id="bInewbM1cch98FMkwYiV-35" value="" style="shape=partialRectangle;connectable=0;fillColor=none;top=0;left=0;bottom=0;right=0;editable=1;overflow=hidden;startSize=30;" parent="bInewbM1cch98FMkwYiV-34" vertex="1">
          <mxGeometry width="30" height="30" as="geometry">
            <mxRectangle width="30" height="30" as="alternateBounds" />
          </mxGeometry>
        </mxCell>
        <mxCell id="bInewbM1cch98FMkwYiV-36" value="nome_jogador&#xa;Email" style="shape=partialRectangle;connectable=0;fillColor=none;top=0;left=0;bottom=0;right=0;align=left;spacingLeft=6;overflow=hidden;startSize=30;" parent="bInewbM1cch98FMkwYiV-34" vertex="1">
          <mxGeometry x="30" width="150" height="30" as="geometry">
            <mxRectangle width="150" height="30" as="alternateBounds" />
          </mxGeometry>
        </mxCell>
        <mxCell id="bInewbM1cch98FMkwYiV-37" value="" style="shape=tableRow;horizontal=0;startSize=0;swimlaneHead=0;swimlaneBody=0;fillColor=none;collapsible=0;dropTarget=0;points=[[0,0.5],[1,0.5]];portConstraint=eastwest;top=0;left=0;right=0;bottom=0;" parent="bInewbM1cch98FMkwYiV-30" vertex="1">
          <mxGeometry y="130" width="180" height="30" as="geometry" />
        </mxCell>
        <mxCell id="bInewbM1cch98FMkwYiV-38" value="" style="shape=partialRectangle;connectable=0;fillColor=none;top=0;left=0;bottom=0;right=0;editable=1;overflow=hidden;startSize=30;" parent="bInewbM1cch98FMkwYiV-37" vertex="1">
          <mxGeometry width="30" height="30" as="geometry">
            <mxRectangle width="30" height="30" as="alternateBounds" />
          </mxGeometry>
        </mxCell>
        <mxCell id="bInewbM1cch98FMkwYiV-39" value="senha" style="shape=partialRectangle;connectable=0;fillColor=none;top=0;left=0;bottom=0;right=0;align=left;spacingLeft=6;overflow=hidden;startSize=30;" parent="bInewbM1cch98FMkwYiV-37" vertex="1">
          <mxGeometry x="30" width="150" height="30" as="geometry">
            <mxRectangle width="150" height="30" as="alternateBounds" />
          </mxGeometry>
        </mxCell>
        <mxCell id="bInewbM1cch98FMkwYiV-43" value="Personagem" style="shape=table;startSize=30;container=1;collapsible=1;childLayout=tableLayout;fixedRows=1;rowLines=0;fontStyle=1;align=center;resizeLast=1;" parent="1" vertex="1">
          <mxGeometry x="20" y="70" width="180" height="170" as="geometry" />
        </mxCell>
        <mxCell id="bInewbM1cch98FMkwYiV-44" value="" style="shape=tableRow;horizontal=0;startSize=0;swimlaneHead=0;swimlaneBody=0;fillColor=none;collapsible=0;dropTarget=0;points=[[0,0.5],[1,0.5]];portConstraint=eastwest;top=0;left=0;right=0;bottom=1;" parent="bInewbM1cch98FMkwYiV-43" vertex="1">
          <mxGeometry y="30" width="180" height="70" as="geometry" />
        </mxCell>
        <mxCell id="bInewbM1cch98FMkwYiV-45" value="PK&#xa;&#xa;FK" style="shape=partialRectangle;connectable=0;fillColor=none;top=0;left=0;bottom=0;right=0;fontStyle=1;overflow=hidden;startSize=30;" parent="bInewbM1cch98FMkwYiV-44" vertex="1">
          <mxGeometry width="30" height="70" as="geometry">
            <mxRectangle width="30" height="70" as="alternateBounds" />
          </mxGeometry>
        </mxCell>
        <mxCell id="bInewbM1cch98FMkwYiV-46" value="ID_Personagem&#xa;&#xa;ID_Classe" style="shape=partialRectangle;connectable=0;fillColor=none;top=0;left=0;bottom=0;right=0;align=left;spacingLeft=6;fontStyle=5;overflow=hidden;startSize=30;" parent="bInewbM1cch98FMkwYiV-44" vertex="1">
          <mxGeometry x="30" width="150" height="70" as="geometry">
            <mxRectangle width="150" height="70" as="alternateBounds" />
          </mxGeometry>
        </mxCell>
        <mxCell id="bInewbM1cch98FMkwYiV-47" value="" style="shape=tableRow;horizontal=0;startSize=0;swimlaneHead=0;swimlaneBody=0;fillColor=none;collapsible=0;dropTarget=0;points=[[0,0.5],[1,0.5]];portConstraint=eastwest;top=0;left=0;right=0;bottom=0;" parent="bInewbM1cch98FMkwYiV-43" vertex="1">
          <mxGeometry y="100" width="180" height="30" as="geometry" />
        </mxCell>
        <mxCell id="bInewbM1cch98FMkwYiV-48" value="" style="shape=partialRectangle;connectable=0;fillColor=none;top=0;left=0;bottom=0;right=0;editable=1;overflow=hidden;startSize=30;" parent="bInewbM1cch98FMkwYiV-47" vertex="1">
          <mxGeometry width="30" height="30" as="geometry">
            <mxRectangle width="30" height="30" as="alternateBounds" />
          </mxGeometry>
        </mxCell>
        <mxCell id="bInewbM1cch98FMkwYiV-49" value="nome_personagem" style="shape=partialRectangle;connectable=0;fillColor=none;top=0;left=0;bottom=0;right=0;align=left;spacingLeft=6;overflow=hidden;startSize=30;" parent="bInewbM1cch98FMkwYiV-47" vertex="1">
          <mxGeometry x="30" width="150" height="30" as="geometry">
            <mxRectangle width="150" height="30" as="alternateBounds" />
          </mxGeometry>
        </mxCell>
        <mxCell id="bInewbM1cch98FMkwYiV-50" value="" style="shape=tableRow;horizontal=0;startSize=0;swimlaneHead=0;swimlaneBody=0;fillColor=none;collapsible=0;dropTarget=0;points=[[0,0.5],[1,0.5]];portConstraint=eastwest;top=0;left=0;right=0;bottom=0;" parent="bInewbM1cch98FMkwYiV-43" vertex="1">
          <mxGeometry y="130" width="180" height="30" as="geometry" />
        </mxCell>
        <mxCell id="bInewbM1cch98FMkwYiV-51" value="" style="shape=partialRectangle;connectable=0;fillColor=none;top=0;left=0;bottom=0;right=0;editable=1;overflow=hidden;startSize=30;" parent="bInewbM1cch98FMkwYiV-50" vertex="1">
          <mxGeometry width="30" height="30" as="geometry">
            <mxRectangle width="30" height="30" as="alternateBounds" />
          </mxGeometry>
        </mxCell>
        <mxCell id="bInewbM1cch98FMkwYiV-52" value="nome_classe" style="shape=partialRectangle;connectable=0;fillColor=none;top=0;left=0;bottom=0;right=0;align=left;spacingLeft=6;overflow=hidden;startSize=30;" parent="bInewbM1cch98FMkwYiV-50" vertex="1">
          <mxGeometry x="30" width="150" height="30" as="geometry">
            <mxRectangle width="150" height="30" as="alternateBounds" />
          </mxGeometry>
        </mxCell>
        <mxCell id="bInewbM1cch98FMkwYiV-53" value="Classe" style="shape=table;startSize=30;container=1;collapsible=1;childLayout=tableLayout;fixedRows=1;rowLines=0;fontStyle=1;align=center;resizeLast=1;" parent="1" vertex="1">
          <mxGeometry x="230" y="70" width="180" height="140" as="geometry" />
        </mxCell>
        <mxCell id="bInewbM1cch98FMkwYiV-54" value="" style="shape=tableRow;horizontal=0;startSize=0;swimlaneHead=0;swimlaneBody=0;fillColor=none;collapsible=0;dropTarget=0;points=[[0,0.5],[1,0.5]];portConstraint=eastwest;top=0;left=0;right=0;bottom=1;" parent="bInewbM1cch98FMkwYiV-53" vertex="1">
          <mxGeometry y="30" width="180" height="70" as="geometry" />
        </mxCell>
        <mxCell id="bInewbM1cch98FMkwYiV-55" value="PK" style="shape=partialRectangle;connectable=0;fillColor=none;top=0;left=0;bottom=0;right=0;fontStyle=1;overflow=hidden;startSize=30;" parent="bInewbM1cch98FMkwYiV-54" vertex="1">
          <mxGeometry width="30" height="70" as="geometry">
            <mxRectangle width="30" height="70" as="alternateBounds" />
          </mxGeometry>
        </mxCell>
        <mxCell id="bInewbM1cch98FMkwYiV-56" value="ID_Classe" style="shape=partialRectangle;connectable=0;fillColor=none;top=0;left=0;bottom=0;right=0;align=left;spacingLeft=6;fontStyle=5;overflow=hidden;startSize=30;" parent="bInewbM1cch98FMkwYiV-54" vertex="1">
          <mxGeometry x="30" width="150" height="70" as="geometry">
            <mxRectangle width="150" height="70" as="alternateBounds" />
          </mxGeometry>
        </mxCell>
        <mxCell id="bInewbM1cch98FMkwYiV-57" value="" style="shape=tableRow;horizontal=0;startSize=0;swimlaneHead=0;swimlaneBody=0;fillColor=none;collapsible=0;dropTarget=0;points=[[0,0.5],[1,0.5]];portConstraint=eastwest;top=0;left=0;right=0;bottom=0;" parent="bInewbM1cch98FMkwYiV-53" vertex="1">
          <mxGeometry y="100" width="180" height="30" as="geometry" />
        </mxCell>
        <mxCell id="bInewbM1cch98FMkwYiV-58" value="" style="shape=partialRectangle;connectable=0;fillColor=none;top=0;left=0;bottom=0;right=0;editable=1;overflow=hidden;startSize=30;" parent="bInewbM1cch98FMkwYiV-57" vertex="1">
          <mxGeometry width="30" height="30" as="geometry">
            <mxRectangle width="30" height="30" as="alternateBounds" />
          </mxGeometry>
        </mxCell>
        <mxCell id="bInewbM1cch98FMkwYiV-59" value="nome_classe" style="shape=partialRectangle;connectable=0;fillColor=none;top=0;left=0;bottom=0;right=0;align=left;spacingLeft=6;overflow=hidden;startSize=30;" parent="bInewbM1cch98FMkwYiV-57" vertex="1">
          <mxGeometry x="30" width="150" height="30" as="geometry">
            <mxRectangle width="150" height="30" as="alternateBounds" />
          </mxGeometry>
        </mxCell>
        <mxCell id="bInewbM1cch98FMkwYiV-64" value="Classe-Habilidade" style="shape=table;startSize=30;container=1;collapsible=1;childLayout=tableLayout;fixedRows=1;rowLines=0;fontStyle=1;align=center;resizeLast=1;" parent="1" vertex="1">
          <mxGeometry x="440" y="70" width="180" height="100" as="geometry" />
        </mxCell>
        <mxCell id="bInewbM1cch98FMkwYiV-65" value="" style="shape=tableRow;horizontal=0;startSize=0;swimlaneHead=0;swimlaneBody=0;fillColor=none;collapsible=0;dropTarget=0;points=[[0,0.5],[1,0.5]];portConstraint=eastwest;top=0;left=0;right=0;bottom=1;" parent="bInewbM1cch98FMkwYiV-64" vertex="1">
          <mxGeometry y="30" width="180" height="70" as="geometry" />
        </mxCell>
        <mxCell id="bInewbM1cch98FMkwYiV-66" value="PK&#xa;&#xa;FK" style="shape=partialRectangle;connectable=0;fillColor=none;top=0;left=0;bottom=0;right=0;fontStyle=1;overflow=hidden;startSize=30;" parent="bInewbM1cch98FMkwYiV-65" vertex="1">
          <mxGeometry width="40" height="70" as="geometry">
            <mxRectangle width="40" height="70" as="alternateBounds" />
          </mxGeometry>
        </mxCell>
        <mxCell id="bInewbM1cch98FMkwYiV-67" value="ID_Classe&#xa;&#xa;ID_Habilidade" style="shape=partialRectangle;connectable=0;fillColor=none;top=0;left=0;bottom=0;right=0;align=left;spacingLeft=6;fontStyle=5;overflow=hidden;startSize=30;" parent="bInewbM1cch98FMkwYiV-65" vertex="1">
          <mxGeometry x="40" width="140" height="70" as="geometry">
            <mxRectangle width="140" height="70" as="alternateBounds" />
          </mxGeometry>
        </mxCell>
        <mxCell id="bInewbM1cch98FMkwYiV-71" value="Habilidade" style="shape=table;startSize=30;container=1;collapsible=1;childLayout=tableLayout;fixedRows=1;rowLines=0;fontStyle=1;align=center;resizeLast=1;" parent="1" vertex="1">
          <mxGeometry x="660" y="70" width="180" height="140" as="geometry" />
        </mxCell>
        <mxCell id="bInewbM1cch98FMkwYiV-72" value="" style="shape=tableRow;horizontal=0;startSize=0;swimlaneHead=0;swimlaneBody=0;fillColor=none;collapsible=0;dropTarget=0;points=[[0,0.5],[1,0.5]];portConstraint=eastwest;top=0;left=0;right=0;bottom=1;" parent="bInewbM1cch98FMkwYiV-71" vertex="1">
          <mxGeometry y="30" width="180" height="70" as="geometry" />
        </mxCell>
        <mxCell id="bInewbM1cch98FMkwYiV-73" value="PK" style="shape=partialRectangle;connectable=0;fillColor=none;top=0;left=0;bottom=0;right=0;fontStyle=1;overflow=hidden;startSize=30;" parent="bInewbM1cch98FMkwYiV-72" vertex="1">
          <mxGeometry width="30" height="70" as="geometry">
            <mxRectangle width="30" height="70" as="alternateBounds" />
          </mxGeometry>
        </mxCell>
        <mxCell id="bInewbM1cch98FMkwYiV-74" value="ID_Habilidade" style="shape=partialRectangle;connectable=0;fillColor=none;top=0;left=0;bottom=0;right=0;align=left;spacingLeft=6;fontStyle=5;overflow=hidden;startSize=30;" parent="bInewbM1cch98FMkwYiV-72" vertex="1">
          <mxGeometry x="30" width="150" height="70" as="geometry">
            <mxRectangle width="150" height="70" as="alternateBounds" />
          </mxGeometry>
        </mxCell>
        <mxCell id="bInewbM1cch98FMkwYiV-75" value="" style="shape=tableRow;horizontal=0;startSize=0;swimlaneHead=0;swimlaneBody=0;fillColor=none;collapsible=0;dropTarget=0;points=[[0,0.5],[1,0.5]];portConstraint=eastwest;top=0;left=0;right=0;bottom=0;" parent="bInewbM1cch98FMkwYiV-71" vertex="1">
          <mxGeometry y="100" width="180" height="30" as="geometry" />
        </mxCell>
        <mxCell id="bInewbM1cch98FMkwYiV-76" value="" style="shape=partialRectangle;connectable=0;fillColor=none;top=0;left=0;bottom=0;right=0;editable=1;overflow=hidden;startSize=30;" parent="bInewbM1cch98FMkwYiV-75" vertex="1">
          <mxGeometry width="30" height="30" as="geometry">
            <mxRectangle width="30" height="30" as="alternateBounds" />
          </mxGeometry>
        </mxCell>
        <mxCell id="bInewbM1cch98FMkwYiV-77" value="Descrição" style="shape=partialRectangle;connectable=0;fillColor=none;top=0;left=0;bottom=0;right=0;align=left;spacingLeft=6;overflow=hidden;startSize=30;" parent="bInewbM1cch98FMkwYiV-75" vertex="1">
          <mxGeometry x="30" width="150" height="30" as="geometry">
            <mxRectangle width="150" height="30" as="alternateBounds" />
          </mxGeometry>
        </mxCell>
        <mxCell id="bInewbM1cch98FMkwYiV-80" value="" style="edgeStyle=orthogonalEdgeStyle;rounded=0;orthogonalLoop=1;jettySize=auto;html=1;startSize=30;" parent="1" source="bInewbM1cch98FMkwYiV-78" target="bInewbM1cch98FMkwYiV-79" edge="1">
          <mxGeometry relative="1" as="geometry" />
        </mxCell>
        <mxCell id="bInewbM1cch98FMkwYiV-105" value="" style="edgeStyle=orthogonalEdgeStyle;rounded=0;orthogonalLoop=1;jettySize=auto;html=1;startSize=30;" parent="1" source="bInewbM1cch98FMkwYiV-78" edge="1">
          <mxGeometry relative="1" as="geometry">
            <mxPoint x="-320" y="580" as="targetPoint" />
          </mxGeometry>
        </mxCell>
        <mxCell id="bInewbM1cch98FMkwYiV-107" value="" style="edgeStyle=orthogonalEdgeStyle;rounded=0;orthogonalLoop=1;jettySize=auto;html=1;startSize=30;" parent="1" source="bInewbM1cch98FMkwYiV-78" target="bInewbM1cch98FMkwYiV-106" edge="1">
          <mxGeometry relative="1" as="geometry" />
        </mxCell>
        <mxCell id="bInewbM1cch98FMkwYiV-109" value="" style="edgeStyle=orthogonalEdgeStyle;rounded=0;orthogonalLoop=1;jettySize=auto;html=1;startSize=30;entryX=0.5;entryY=0;entryDx=0;entryDy=0;" parent="1" source="bInewbM1cch98FMkwYiV-78" edge="1" target="bInewbM1cch98FMkwYiV-108">
          <mxGeometry relative="1" as="geometry">
            <mxPoint x="-520" y="760" as="targetPoint" />
            <Array as="points">
              <mxPoint x="-450" y="710" />
            </Array>
          </mxGeometry>
        </mxCell>
        <mxCell id="9GxdWcXm-hvdmlet1FrT-5" value="" style="edgeStyle=orthogonalEdgeStyle;rounded=0;orthogonalLoop=1;jettySize=auto;html=1;" edge="1" parent="1" source="bInewbM1cch98FMkwYiV-78" target="9GxdWcXm-hvdmlet1FrT-4">
          <mxGeometry relative="1" as="geometry" />
        </mxCell>
        <mxCell id="bInewbM1cch98FMkwYiV-78" value="Jogador" style="rounded=0;whiteSpace=wrap;html=1;startSize=30;" parent="1" vertex="1">
          <mxGeometry x="-380" y="680" width="120" height="60" as="geometry" />
        </mxCell>
        <mxCell id="bInewbM1cch98FMkwYiV-82" value="" style="edgeStyle=orthogonalEdgeStyle;rounded=0;orthogonalLoop=1;jettySize=auto;html=1;startSize=30;" parent="1" source="bInewbM1cch98FMkwYiV-79" target="bInewbM1cch98FMkwYiV-81" edge="1">
          <mxGeometry relative="1" as="geometry" />
        </mxCell>
        <mxCell id="bInewbM1cch98FMkwYiV-79" value="Controla" style="rhombus;whiteSpace=wrap;html=1;rounded=0;startSize=30;" parent="1" vertex="1">
          <mxGeometry x="-170" y="670" width="80" height="80" as="geometry" />
        </mxCell>
        <mxCell id="bInewbM1cch98FMkwYiV-84" value="" style="edgeStyle=orthogonalEdgeStyle;rounded=0;orthogonalLoop=1;jettySize=auto;html=1;startSize=30;" parent="1" source="bInewbM1cch98FMkwYiV-81" target="bInewbM1cch98FMkwYiV-83" edge="1">
          <mxGeometry relative="1" as="geometry" />
        </mxCell>
        <mxCell id="fRAz0vtn3qW94toV27Mp-5" value="" style="edgeStyle=orthogonalEdgeStyle;rounded=0;orthogonalLoop=1;jettySize=auto;html=1;" parent="1" source="bInewbM1cch98FMkwYiV-81" target="fRAz0vtn3qW94toV27Mp-4" edge="1">
          <mxGeometry relative="1" as="geometry" />
        </mxCell>
        <mxCell id="fRAz0vtn3qW94toV27Mp-6" style="edgeStyle=orthogonalEdgeStyle;rounded=0;orthogonalLoop=1;jettySize=auto;html=1;exitX=0.25;exitY=0;exitDx=0;exitDy=0;entryX=0.5;entryY=1;entryDx=0;entryDy=0;" parent="1" source="bInewbM1cch98FMkwYiV-81" target="fRAz0vtn3qW94toV27Mp-2" edge="1">
          <mxGeometry relative="1" as="geometry" />
        </mxCell>
        <mxCell id="fRAz0vtn3qW94toV27Mp-7" style="edgeStyle=orthogonalEdgeStyle;rounded=0;orthogonalLoop=1;jettySize=auto;html=1;exitX=0.75;exitY=0;exitDx=0;exitDy=0;entryX=0.5;entryY=1;entryDx=0;entryDy=0;" parent="1" source="bInewbM1cch98FMkwYiV-81" edge="1">
          <mxGeometry relative="1" as="geometry">
            <mxPoint x="170" y="600" as="targetPoint" />
          </mxGeometry>
        </mxCell>
        <mxCell id="9GxdWcXm-hvdmlet1FrT-2" value="" style="edgeStyle=orthogonalEdgeStyle;rounded=0;orthogonalLoop=1;jettySize=auto;html=1;" edge="1" parent="1" source="bInewbM1cch98FMkwYiV-81" target="9GxdWcXm-hvdmlet1FrT-1">
          <mxGeometry relative="1" as="geometry" />
        </mxCell>
        <mxCell id="bInewbM1cch98FMkwYiV-81" value="Personagem" style="whiteSpace=wrap;html=1;rounded=0;startSize=30;" parent="1" vertex="1">
          <mxGeometry x="-20" y="680" width="120" height="60" as="geometry" />
        </mxCell>
        <mxCell id="bInewbM1cch98FMkwYiV-86" value="" style="edgeStyle=orthogonalEdgeStyle;rounded=0;orthogonalLoop=1;jettySize=auto;html=1;startSize=30;" parent="1" source="bInewbM1cch98FMkwYiV-83" target="bInewbM1cch98FMkwYiV-85" edge="1">
          <mxGeometry relative="1" as="geometry" />
        </mxCell>
        <mxCell id="fRAz0vtn3qW94toV27Mp-8" value="" style="edgeStyle=orthogonalEdgeStyle;rounded=0;orthogonalLoop=1;jettySize=auto;html=1;" parent="1" source="bInewbM1cch98FMkwYiV-83" target="bInewbM1cch98FMkwYiV-81" edge="1">
          <mxGeometry relative="1" as="geometry" />
        </mxCell>
        <mxCell id="bInewbM1cch98FMkwYiV-83" value="Pertence" style="rhombus;whiteSpace=wrap;html=1;rounded=0;startSize=30;" parent="1" vertex="1">
          <mxGeometry x="150" y="670" width="80" height="80" as="geometry" />
        </mxCell>
        <mxCell id="bInewbM1cch98FMkwYiV-88" value="" style="edgeStyle=orthogonalEdgeStyle;rounded=0;orthogonalLoop=1;jettySize=auto;html=1;startSize=30;" parent="1" source="bInewbM1cch98FMkwYiV-85" edge="1">
          <mxGeometry relative="1" as="geometry">
            <mxPoint x="410" y="710" as="targetPoint" />
          </mxGeometry>
        </mxCell>
        <mxCell id="bInewbM1cch98FMkwYiV-85" value="Classe" style="whiteSpace=wrap;html=1;rounded=0;startSize=30;" parent="1" vertex="1">
          <mxGeometry x="250" y="680" width="120" height="60" as="geometry" />
        </mxCell>
        <mxCell id="fRAz0vtn3qW94toV27Mp-10" style="edgeStyle=orthogonalEdgeStyle;rounded=0;orthogonalLoop=1;jettySize=auto;html=1;exitX=1;exitY=0.5;exitDx=0;exitDy=0;entryX=0;entryY=0.5;entryDx=0;entryDy=0;" parent="1" source="bInewbM1cch98FMkwYiV-87" target="bInewbM1cch98FMkwYiV-89" edge="1">
          <mxGeometry relative="1" as="geometry" />
        </mxCell>
        <mxCell id="bInewbM1cch98FMkwYiV-87" value="Possui" style="rhombus;whiteSpace=wrap;html=1;rounded=0;startSize=30;" parent="1" vertex="1">
          <mxGeometry x="410" y="670" width="80" height="80" as="geometry" />
        </mxCell>
        <mxCell id="fRAz0vtn3qW94toV27Mp-11" style="edgeStyle=orthogonalEdgeStyle;rounded=0;orthogonalLoop=1;jettySize=auto;html=1;exitX=1;exitY=0.5;exitDx=0;exitDy=0;" parent="1" source="bInewbM1cch98FMkwYiV-89" target="bInewbM1cch98FMkwYiV-114" edge="1">
          <mxGeometry relative="1" as="geometry" />
        </mxCell>
        <mxCell id="bInewbM1cch98FMkwYiV-89" value="Habilidades" style="whiteSpace=wrap;html=1;rounded=0;startSize=30;" parent="1" vertex="1">
          <mxGeometry x="510" y="680" width="120" height="60" as="geometry" />
        </mxCell>
        <mxCell id="bInewbM1cch98FMkwYiV-91" value="N" style="text;html=1;align=center;verticalAlign=middle;resizable=0;points=[];autosize=1;strokeColor=none;fillColor=none;" parent="1" vertex="1">
          <mxGeometry x="370" y="680" width="20" height="20" as="geometry" />
        </mxCell>
        <mxCell id="bInewbM1cch98FMkwYiV-92" value="N" style="text;html=1;align=center;verticalAlign=middle;resizable=0;points=[];autosize=1;strokeColor=none;fillColor=none;" parent="1" vertex="1">
          <mxGeometry x="100" y="680" width="20" height="20" as="geometry" />
        </mxCell>
        <mxCell id="bInewbM1cch98FMkwYiV-93" value="N" style="text;html=1;align=center;verticalAlign=middle;resizable=0;points=[];autosize=1;strokeColor=none;fillColor=none;" parent="1" vertex="1">
          <mxGeometry x="490" y="680" width="20" height="20" as="geometry" />
        </mxCell>
        <mxCell id="bInewbM1cch98FMkwYiV-94" value="1" style="text;html=1;align=center;verticalAlign=middle;resizable=0;points=[];autosize=1;strokeColor=none;fillColor=none;" parent="1" vertex="1">
          <mxGeometry x="230" y="680" width="20" height="20" as="geometry" />
        </mxCell>
        <mxCell id="bInewbM1cch98FMkwYiV-95" value="1" style="text;html=1;align=center;verticalAlign=middle;resizable=0;points=[];autosize=1;strokeColor=none;fillColor=none;" parent="1" vertex="1">
          <mxGeometry x="-250" y="680" width="20" height="20" as="geometry" />
        </mxCell>
        <mxCell id="bInewbM1cch98FMkwYiV-96" value="1" style="text;html=1;align=center;verticalAlign=middle;resizable=0;points=[];autosize=1;strokeColor=none;fillColor=none;" parent="1" vertex="1">
          <mxGeometry x="-50" y="680" width="20" height="20" as="geometry" />
        </mxCell>
        <mxCell id="bInewbM1cch98FMkwYiV-98" style="edgeStyle=orthogonalEdgeStyle;rounded=0;orthogonalLoop=1;jettySize=auto;html=1;exitX=1;exitY=0.5;exitDx=0;exitDy=0;entryX=0;entryY=0.5;entryDx=0;entryDy=0;startSize=30;" parent="1" source="bInewbM1cch98FMkwYiV-31" target="bInewbM1cch98FMkwYiV-44" edge="1">
          <mxGeometry relative="1" as="geometry" />
        </mxCell>
        <mxCell id="bInewbM1cch98FMkwYiV-99" style="edgeStyle=orthogonalEdgeStyle;rounded=0;orthogonalLoop=1;jettySize=auto;html=1;exitX=1;exitY=0.5;exitDx=0;exitDy=0;entryX=0;entryY=0.5;entryDx=0;entryDy=0;startSize=30;" parent="1" source="bInewbM1cch98FMkwYiV-44" target="bInewbM1cch98FMkwYiV-54" edge="1">
          <mxGeometry relative="1" as="geometry" />
        </mxCell>
        <mxCell id="bInewbM1cch98FMkwYiV-104" value="&lt;u&gt;ID_Jogador&lt;/u&gt;" style="ellipse;whiteSpace=wrap;html=1;rounded=0;startSize=30;" parent="1" vertex="1">
          <mxGeometry x="-380" y="520" width="120" height="60" as="geometry" />
        </mxCell>
        <mxCell id="bInewbM1cch98FMkwYiV-106" value="login_Jogador" style="ellipse;whiteSpace=wrap;html=1;rounded=0;startSize=30;" parent="1" vertex="1">
          <mxGeometry x="-510" y="590" width="120" height="60" as="geometry" />
        </mxCell>
        <mxCell id="bInewbM1cch98FMkwYiV-108" value="Senha" style="ellipse;whiteSpace=wrap;html=1;rounded=0;startSize=30;" parent="1" vertex="1">
          <mxGeometry x="-510" y="760" width="120" height="60" as="geometry" />
        </mxCell>
        <mxCell id="bInewbM1cch98FMkwYiV-110" value="&lt;u&gt;ID_Personagem&lt;/u&gt;" style="ellipse;whiteSpace=wrap;html=1;rounded=0;startSize=30;" parent="1" vertex="1">
          <mxGeometry x="110" y="540" width="120" height="60" as="geometry" />
        </mxCell>
        <mxCell id="bInewbM1cch98FMkwYiV-114" value="&lt;u&gt;ID_Habilidade&lt;/u&gt;" style="ellipse;whiteSpace=wrap;html=1;rounded=0;startSize=30;" parent="1" vertex="1">
          <mxGeometry x="660" y="680" width="120" height="60" as="geometry" />
        </mxCell>
        <mxCell id="bInewbM1cch98FMkwYiV-119" style="edgeStyle=orthogonalEdgeStyle;rounded=0;orthogonalLoop=1;jettySize=auto;html=1;exitX=1;exitY=0.5;exitDx=0;exitDy=0;startSize=30;" parent="1" source="bInewbM1cch98FMkwYiV-65" target="bInewbM1cch98FMkwYiV-72" edge="1">
          <mxGeometry relative="1" as="geometry" />
        </mxCell>
        <mxCell id="bInewbM1cch98FMkwYiV-120" style="edgeStyle=orthogonalEdgeStyle;rounded=0;orthogonalLoop=1;jettySize=auto;html=1;exitX=1;exitY=0.5;exitDx=0;exitDy=0;startSize=30;" parent="1" source="bInewbM1cch98FMkwYiV-54" target="bInewbM1cch98FMkwYiV-65" edge="1">
          <mxGeometry relative="1" as="geometry" />
        </mxCell>
        <mxCell id="fRAz0vtn3qW94toV27Mp-2" value="nome_Personagem" style="ellipse;whiteSpace=wrap;html=1;rounded=0;startSize=30;" parent="1" vertex="1">
          <mxGeometry x="-145" y="540" width="120" height="60" as="geometry" />
        </mxCell>
        <mxCell id="fRAz0vtn3qW94toV27Mp-4" value="nome_Classe" style="ellipse;whiteSpace=wrap;html=1;rounded=0;startSize=30;" parent="1" vertex="1">
          <mxGeometry x="-20" y="540" width="120" height="60" as="geometry" />
        </mxCell>
        <mxCell id="9GxdWcXm-hvdmlet1FrT-1" value="&lt;u style=&quot;&quot;&gt;ID_Jogador&lt;/u&gt;" style="ellipse;whiteSpace=wrap;html=1;rounded=0;startSize=30;" vertex="1" parent="1">
          <mxGeometry x="-20" y="820" width="120" height="60" as="geometry" />
        </mxCell>
        <mxCell id="9GxdWcXm-hvdmlet1FrT-4" value="Email" style="ellipse;whiteSpace=wrap;html=1;rounded=0;startSize=30;" vertex="1" parent="1">
          <mxGeometry x="-580" y="680" width="120" height="60" as="geometry" />
        </mxCell>
      </root>
    </mxGraphModel>
  </diagram>
</mxfile>
